<?xml version="1.0" standalone="no"?>
<!DOCTYPE svg PUBLIC "-//W3C//DTD SVG 20010904//EN"
 "http://www.w3.org/TR/2001/REC-SVG-20010904/DTD/svg10.dtd">
<svg version="1.0" xmlns="http://www.w3.org/2000/svg"
 width="16.000000pt" height="16.000000pt" viewBox="0 0 16.000000 16.000000"
 preserveAspectRatio="xMidYMid meet">
<metadata>
Created by potrace 1.11, written by Peter Selinger 2001-2013
</metadata>
<g transform="translate(0.000000,16.000000) scale(0.001436,-0.001436)"
fill="#000000" stroke="none">
<path d="M0 5570 l0 -5570 5570 0 5570 0 0 5570 0 5570 -5570 0 -5570 0 0
-5570z m5640 4410 c11 -11 28 -20 39 -20 10 0 24 -7 31 -15 7 -8 17 -15 22
-15 20 0 91 -65 103 -94 7 -17 25 -42 39 -55 14 -14 26 -34 26 -47 0 -12 7
-39 16 -60 24 -58 0 -178 -49 -239 -15 -19 -27 -38 -27 -42 0 -12 -48 -59
-106 -103 -28 -21 -61 -57 -72 -79 l-22 -42 0 -1196 c0 -1195 0 -1196 21
-1229 11 -19 29 -39 39 -44 11 -6 115 -10 243 -10 l225 0 31 35 31 36 0 527
c0 461 2 530 16 550 l15 22 520 0 c473 0 522 2 547 17 37 23 65 51 93 93 44
65 151 150 191 150 12 1 34 7 48 15 44 25 99 17 225 -34 58 -23 155 -117 155
-151 0 -14 7 -35 15 -46 10 -14 14 -47 15 -117 0 -89 -3 -103 -31 -161 -36
-73 -81 -124 -145 -161 -43 -25 -54 -27 -165 -27 -103 0 -125 3 -162 22 -50
26 -105 77 -154 143 -20 27 -53 59 -74 73 l-39 24 -406 0 -407 0 -48 -49 -49
-48 0 -402 c0 -432 0 -430 53 -488 17 -19 31 -23 81 -23 97 0 117 -18 138
-121 15 -69 23 -89 48 -111 l30 -28 731 0 732 0 33 36 34 35 1 547 c2 1238 1
1299 -18 1329 -19 31 -81 91 -128 124 -27 19 -60 63 -96 129 -10 17 -14 62
-14 145 l0 120 37 56 c39 57 94 108 161 147 34 19 53 22 146 22 77 -1 111 -5
125 -15 11 -8 28 -15 38 -15 23 0 128 -105 149 -150 48 -102 63 -212 35 -252
-9 -12 -16 -31 -16 -41 0 -50 -67 -131 -174 -210 -81 -61 -83 -71 -78 -302 4
-171 6 -512 5 -705 0 -30 -1 -149 -1 -265 0 -450 -11 -866 -22 -880 -6 -8 -23
-16 -38 -19 -15 -4 -385 -7 -822 -9 l-795 -2 -38 -24 c-39 -24 -84 -102 -71
-122 3 -5 9 -93 12 -194 l7 -185 36 -35 35 -36 1227 1 1228 0 67 50 c36 28 71
63 78 78 13 31 78 92 98 92 8 0 19 7 26 15 7 8 22 15 34 15 11 1 39 9 61 20
22 11 47 19 55 19 8 0 33 -8 55 -19 22 -11 47 -19 56 -20 64 -1 203 -118 216
-181 3 -16 12 -34 19 -40 8 -6 14 -24 14 -39 0 -15 5 -40 10 -57 28 -80 -75
-279 -165 -320 -16 -7 -37 -17 -45 -21 -67 -37 -86 -42 -160 -42 -74 0 -83 2
-150 42 -83 47 -129 90 -153 140 -20 42 -46 61 -124 87 -57 20 -80 20 -1033
16 -536 -2 -1077 -8 -1202 -12 -221 -8 -227 -9 -252 -32 -14 -14 -26 -31 -26
-38 0 -8 -8 -25 -17 -39 -14 -22 -15 -32 -5 -70 7 -24 12 -109 12 -189 l0
-145 29 -32 29 -33 529 -5 c546 -5 572 -7 588 -47 4 -10 6 -226 6 -480 -1
-307 2 -464 9 -468 5 -3 10 -25 10 -48 1 -60 17 -88 85 -145 98 -81 118 -108
165 -214 24 -55 27 -163 6 -193 -7 -11 -18 -36 -25 -55 -14 -44 -107 -150
-131 -150 -9 0 -23 -7 -30 -15 -7 -8 -24 -15 -39 -15 -14 -1 -37 -7 -51 -15
-33 -19 -87 -19 -140 0 -23 8 -56 15 -72 15 -61 0 -208 156 -208 221 0 19 -7
43 -15 53 -19 25 -19 83 0 116 8 14 14 32 15 42 0 39 116 184 181 227 21 14
45 43 57 70 21 45 22 56 21 426 -2 411 -1 403 -58 468 l-25 27 -425 0 -426 -1
-32 -27 c-36 -31 -53 -68 -53 -115 0 -41 -33 -95 -66 -107 -14 -6 -44 -10 -68
-10 -34 0 -49 -7 -79 -34 l-37 -34 0 -739 0 -739 31 -23 31 -23 941 1 941 1
38 25 c21 14 38 33 38 43 0 10 33 51 74 90 56 55 81 72 102 72 16 0 38 7 48
15 27 20 154 20 193 0 15 -8 41 -17 56 -20 33 -7 167 -137 167 -162 0 -9 6
-24 13 -32 20 -23 40 -158 27 -181 -5 -10 -10 -33 -10 -50 0 -18 -9 -43 -20
-57 -11 -14 -20 -31 -20 -37 0 -21 -65 -82 -130 -121 l-65 -40 -120 1 -121 1
-77 57 c-43 32 -82 68 -87 81 -5 12 -32 46 -60 74 l-51 51 -1027 0 -1027 0
-38 25 -37 26 0 832 0 833 -35 34 c-39 38 -29 37 -317 32 l-167 -2 -35 -34
-36 -33 0 -1220 0 -1219 30 -40 c16 -23 48 -54 70 -69 52 -36 160 -169 160
-198 1 -12 7 -33 15 -47 19 -33 19 -81 -1 -149 -26 -88 -34 -101 -109 -177
-91 -91 -161 -120 -270 -111 -80 7 -131 25 -160 57 -11 12 -32 28 -47 36 -16
8 -28 20 -28 26 0 6 -16 26 -35 44 -25 23 -35 40 -35 62 0 16 -7 49 -15 72
-20 55 -19 105 2 171 28 90 59 128 192 237 79 65 73 -45 71 1301 0 866 -4
1210 -12 1225 -6 11 -21 31 -32 43 -21 22 -26 23 -257 23 -338 0 -310 58 -308
-625 1 -385 -1 -519 -10 -528 -9 -9 -149 -13 -519 -17 -417 -4 -514 -8 -544
-20 -33 -14 -63 -44 -161 -165 -16 -19 -35 -35 -42 -35 -7 0 -18 -6 -24 -14
-6 -8 -24 -16 -39 -19 -15 -3 -47 -13 -72 -22 -53 -20 -137 -15 -172 9 -12 9
-31 16 -42 16 -30 0 -111 57 -140 99 -65 93 -94 238 -62 306 9 18 16 39 16 45
0 19 39 80 74 118 17 19 57 49 89 68 57 33 61 34 169 34 105 0 112 -1 153 -29
24 -16 51 -32 62 -35 10 -4 40 -36 66 -72 27 -36 67 -78 89 -95 l41 -29 402 0
402 0 41 30 c28 20 44 41 51 67 7 24 11 188 11 434 l0 396 -30 41 c-30 42 -30
42 -95 42 -58 0 -68 3 -100 31 -31 28 -35 36 -35 80 0 49 -13 81 -54 127 l-19
22 -735 0 -734 0 -29 -29 c-18 -18 -29 -40 -29 -58 -1 -15 -2 -95 -4 -178 -2
-82 -7 -476 -11 -875 -7 -668 -6 -729 9 -775 19 -56 70 -114 132 -150 29 -17
48 -39 69 -82 47 -95 75 -182 68 -217 -25 -143 -101 -253 -208 -301 -47 -22
-68 -25 -167 -25 -112 0 -114 0 -166 34 -102 68 -139 122 -172 251 -15 61 -16
74 -4 104 8 18 14 44 14 56 0 54 94 177 151 197 15 5 46 33 68 62 l41 53 0
1029 c0 566 4 1035 8 1041 5 7 32 20 62 29 46 14 89 15 295 9 132 -4 305 -6
385 -5 277 3 646 3 780 0 142 -4 180 4 228 45 22 19 22 24 22 240 0 217 0 221
-24 256 -45 66 -10 64 -1316 64 -1045 0 -1169 -2 -1203 -16 -22 -9 -75 -54
-125 -105 -55 -56 -105 -98 -137 -113 -27 -13 -58 -28 -67 -32 -10 -5 -50 -9
-89 -9 -60 0 -81 5 -133 31 -71 36 -102 63 -161 141 -36 48 -44 68 -50 118 -4
34 -4 91 0 126 6 59 11 70 66 136 57 71 149 138 188 138 9 0 26 7 37 15 35 27
91 17 186 -31 14 -8 34 -14 43 -14 9 0 60 -44 113 -98 54 -54 110 -104 127
-111 41 -17 2435 -17 2468 0 12 6 34 23 50 37 l27 26 0 236 0 235 -25 38 c-14
20 -31 37 -38 37 -7 0 -19 6 -25 12 -10 10 -132 13 -510 14 -273 1 -511 2
-528 3 -29 1 -33 6 -47 49 -13 39 -14 96 -10 352 3 168 1 320 -4 338 -5 20 -5
77 0 135 4 56 5 127 2 157 -7 58 -27 83 -134 170 -78 64 -96 87 -119 151 -29
83 -30 187 -2 244 11 22 19 45 20 52 0 6 23 36 50 66 51 56 115 97 151 97 11
0 31 7 44 16 30 20 116 14 195 -12 78 -27 176 -126 208 -210 27 -74 30 -197 7
-228 -8 -11 -15 -27 -15 -36 0 -25 -79 -124 -135 -168 -27 -22 -61 -52 -75
-66 l-25 -28 -3 -381 c-4 -406 -1 -454 26 -485 45 -51 51 -52 485 -53 298 0
412 3 429 11 48 25 78 62 78 98 0 18 4 42 10 52 15 28 86 60 133 60 47 0 63 9
95 57 l22 31 0 739 -1 738 -29 35 -29 35 -378 8 c-208 4 -418 7 -468 7 -49 0
-139 0 -200 1 -436 2 -816 -7 -846 -19 -14 -6 -62 -49 -105 -97 -44 -48 -97
-96 -119 -108 -171 -91 -364 -46 -471 109 -47 69 -57 126 -47 254 6 83 23 118
96 197 47 51 79 70 157 91 68 18 112 19 170 2 82 -23 130 -51 173 -103 23 -28
65 -75 93 -104 l51 -53 1027 0 1028 0 29 -29 29 -29 0 -838 0 -838 22 -32 c13
-18 34 -39 47 -46 34 -18 446 -18 479 0 13 8 32 33 42 58 19 43 20 87 20 1227
l1 1182 -25 45 c-14 25 -56 70 -95 102 -85 70 -131 130 -131 172 -1 17 -7 42
-15 56 -8 14 -14 50 -14 80 0 30 6 66 14 80 8 14 14 36 15 50 0 39 122 179
156 180 6 0 17 7 24 15 7 8 23 15 36 15 13 0 32 9 42 19 25 28 124 29 152 1z"/>
<path d="M5461 9885 c-52 -27 -141 -101 -141 -117 0 -6 -7 -19 -15 -28 -21
-24 -34 -131 -22 -197 8 -49 16 -62 71 -118 109 -111 207 -133 323 -71 60 32
109 80 154 152 31 50 29 156 -3 221 -22 44 -120 143 -142 143 -6 1 -29 9 -51
20 -54 26 -119 24 -174 -5z m159 -150 c47 -29 90 -90 90 -125 0 -57 -79 -130
-142 -130 -46 0 -92 20 -119 52 -23 27 -28 43 -29 86 0 62 16 82 94 117 64 30
59 30 106 0z"/>
<path d="M4784 6378 c-20 -17 -40 -43 -46 -57 -10 -26 -11 -707 -2 -1245 l4
-270 27 -28 27 -28 776 0 776 0 22 30 22 29 1 760 0 759 -43 41 -43 40 -742 1
-742 0 -37 -32z"/>
<path d="M1435 5861 c-52 -10 -111 -48 -160 -103 -70 -80 -79 -102 -77 -189 1
-68 5 -83 37 -137 52 -89 165 -162 250 -162 59 0 155 46 213 103 53 52 102
147 102 198 0 48 -49 152 -93 197 -69 72 -181 110 -272 93z m134 -188 c59 -43
75 -129 34 -175 -23 -26 -86 -58 -113 -58 -35 0 -108 59 -120 96 -19 56 21
134 80 157 26 11 92 -1 119 -20z"/>
<path d="M9525 5839 c-34 -13 -67 -38 -102 -76 -29 -31 -53 -61 -53 -66 0 -6
-7 -18 -16 -28 -11 -12 -16 -40 -17 -96 -2 -76 -1 -79 38 -134 66 -93 178
-169 250 -169 48 0 146 54 209 116 41 40 54 62 68 112 12 41 15 68 9 84 -5 13
-12 47 -16 76 -6 47 -14 60 -59 105 -70 70 -127 97 -202 96 -34 0 -81 -9 -109
-20z m151 -135 c58 -28 84 -68 84 -128 0 -61 -21 -96 -74 -121 -76 -36 -148
-10 -190 68 -17 34 -18 37 -1 80 19 49 43 77 90 101 38 20 49 20 91 0z"/>
<path d="M5497 1814 c-155 -56 -245 -197 -216 -336 21 -96 49 -135 142 -196
45 -30 54 -32 135 -32 85 0 89 1 149 40 41 27 74 59 100 98 35 52 38 64 41
137 l4 80 -51 73 c-53 74 -93 106 -171 135 -53 20 -81 20 -133 1z m167 -187
c43 -41 46 -46 46 -96 0 -57 -14 -76 -92 -128 -50 -34 -101 -25 -157 26 -39
36 -41 41 -41 98 0 55 3 63 38 101 37 40 41 42 99 42 57 0 63 -2 107 -43z"/>
</g>
</svg>
